<?xml version="1.0" standalone="no"?>
<!DOCTYPE svg PUBLIC "-//W3C//DTD SVG 20010904//EN"
 "http://www.w3.org/TR/2001/REC-SVG-20010904/DTD/svg10.dtd">
<svg version="1.0" xmlns="http://www.w3.org/2000/svg"
 width="1200.000000pt" height="1200.000000pt" viewBox="0 0 1200.000000 1200.000000"
 preserveAspectRatio="xMidYMid meet">

<g transform="translate(0.000000,1200.000000) scale(0.100000,-0.100000)"
fill="#000000" stroke="none">
<path d="M7120 7980 c0 -5 16 -10 36 -10 l36 0 -7 -922 c-11 -1440 -13 -1762
-14 -1913 l-1 -140 -597 0 c-586 0 -807 -7 -1248 -41 -104 -8 -233 -17 -286
-21 l-95 -6 -33 89 c-53 146 -59 164 -90 294 -46 194 -62 317 -68 550 -4 163
-2 248 10 350 18 146 65 398 98 523 19 70 20 102 3 84 -18 -17 -94 -335 -108
-447 -3 -25 -11 -85 -18 -135 -19 -145 -16 -557 6 -695 25 -161 77 -357 134
-507 l48 -128 79 2 c44 1 213 11 375 22 644 44 1089 49 2205 25 l290 -7 35
114 c41 137 130 318 202 414 194 257 468 404 829 444 44 5 82 11 84 13 2 2 9
121 15 263 14 353 29 683 36 781 l6 81 50 6 c57 7 53 5 62 32 4 15 -18 58 -85
159 -144 222 -254 363 -373 481 -120 118 -199 172 -306 207 -74 24 -112 26
-740 28 l-375 2 -2 -507 -3 -506 88 6 c231 17 1646 94 1650 90 5 -5 -24 -691
-38 -895 -6 -74 -10 -152 -10 -172 0 -36 -2 -38 -32 -38 -18 0 -72 -7 -121
-15 -380 -67 -652 -248 -833 -557 -49 -84 -124 -262 -145 -347 l-13 -54 -323
5 c-178 3 -325 7 -327 9 -2 2 -2 673 1 1492 l6 1487 33 0 c18 0 36 5 39 10 4
6 -25 10 -79 10 -51 0 -86 -4 -86 -10z"/>
<path d="M6768 7969 c-321 -8 -439 -22 -618 -74 -255 -75 -390 -150 -687 -382
-516 -404 -623 -490 -629 -507 -10 -29 16 -107 35 -104 12 2 17 19 21 66 6 70
13 80 85 112 37 17 153 40 282 56 l53 7 16 -39 c9 -22 19 -67 22 -101 8 -99
-22 -118 -228 -149 -58 -9 -107 -18 -110 -21 -3 -3 38 -3 90 0 52 3 505 29
1005 57 501 28 920 53 931 55 25 5 25 10 44 565 17 515 18 465 -5 466 -11 1
-149 -2 -307 -7z"/>
<path d="M8423 6690 c-59 -12 -124 -43 -147 -69 l-19 -21 276 0 c174 0 277 4
277 10 0 14 -40 38 -101 61 -60 23 -219 33 -286 19z"/>
<path d="M6550 6644 c-57 -15 -130 -57 -130 -74 0 -6 101 -10 275 -10 169 0
275 4 275 10 0 16 -90 63 -149 76 -73 18 -202 17 -271 -2z"/>
<path d="M8295 6500 c61 -40 125 -55 240 -55 117 0 196 18 245 55 25 19 23 20
-245 20 l-270 0 30 -20z"/>
<path d="M6455 6460 c55 -37 133 -54 245 -54 109 1 167 14 233 55 l32 19 -270
0 -270 0 30 -20z"/>
<path d="M2535 6316 c-38 -29 -103 -83 -144 -121 l-75 -68 109 6 c59 4 128 7
152 7 23 0 43 5 43 11 0 6 -32 10 -87 9 -152 -2 -142 -6 -102 36 18 19 67 60
107 90 39 30 72 62 72 70 0 8 -1 14 -2 13 -2 0 -34 -24 -73 -53z"/>
<path d="M10046 6243 c-56 -20 -140 -39 -194 -46 l-97 -12 93 -57 c83 -51 103
-59 197 -76 l104 -19 5 21 c19 80 17 229 -2 225 -4 -1 -51 -17 -106 -36z"/>
<path d="M2838 6239 c-24 -14 -23 -55 1 -62 28 -7 43 7 39 38 -3 32 -15 39
-40 24z m12 -29 c0 -5 -5 -10 -11 -10 -5 0 -7 5 -4 10 3 6 8 10 11 10 2 0 4
-4 4 -10z"/>
<path d="M3405 5780 c-280 -35 -533 -167 -694 -362 -71 -86 -141 -222 -173
-333 -17 -63 -22 -107 -23 -205 l0 -125 -203 3 c-131 2 -202 -1 -198 -7 10
-15 105 -48 177 -61 35 -7 145 -13 243 -14 l179 -1 22 -65 c42 -123 94 -208
189 -307 32 -35 55 -63 50 -63 -43 0 -435 -45 -534 -61 -119 -20 -229 -49
-259 -68 -21 -14 -5 -40 35 -57 184 -77 871 -135 2184 -185 437 -17 2484 -23
3067 -10 1718 39 2765 132 2698 241 -22 35 -211 78 -474 108 l-164 18 35 29
c108 89 210 261 250 418 18 68 27 87 41 87 9 0 47 19 83 43 l65 42 -6 71 c-31
407 -353 762 -770 850 -119 26 -339 23 -475 -5 -289 -60 -495 -224 -625 -496
-57 -121 -112 -334 -117 -459 l-2 -49 -121 7 c-883 48 -1317 60 -1840 52 -480
-7 -1025 -29 -1398 -55 -93 -6 -98 -6 -101 14 -2 11 -12 65 -21 120 -32 184
-105 372 -197 508 -89 131 -240 254 -383 311 -139 56 -383 85 -540 66z m259
-376 c234 -60 406 -282 406 -523 0 -380 -378 -644 -733 -511 -154 58 -273 182
-328 342 -28 82 -30 226 -5 313 45 153 166 294 302 351 108 45 249 56 358 28z
m5521 -12 c251 -92 405 -360 352 -614 -52 -256 -269 -438 -525 -441 -156 -1
-278 48 -387 158 -110 110 -165 236 -165 382 0 242 167 463 401 528 79 22 246
15 324 -13z m-1795 -692 c118 -5 346 -12 507 -16 l292 -7 25 -75 c28 -85 103
-214 155 -268 l36 -37 -200 7 c-718 23 -1103 29 -2005 29 -909 1 -1846 -13
-2003 -29 l-58 -6 57 78 c57 79 112 186 135 263 l12 41 105 0 c57 0 191 5 296
11 105 5 324 14 486 19 356 10 1859 4 2160 -10z"/>
<path d="M3315 5327 c-76 -37 -183 -126 -172 -144 4 -7 23 -17 42 -23 34 -11
38 -10 68 20 17 17 58 43 89 58 l57 27 0 48 c1 26 -3 47 -7 47 -4 0 -39 -15
-77 -33z"/>
<path d="M3650 5318 c0 -52 4 -58 53 -80 37 -18 37 -18 37 -78 0 -33 2 -60 4
-60 2 0 43 19 92 41 l88 42 -61 57 c-53 50 -172 120 -203 120 -6 0 -10 -19
-10 -42z"/>
<path d="M3431 5039 c-30 -18 -32 -21 -16 -33 15 -11 16 -16 5 -35 -6 -13 -8
-21 -2 -18 18 12 51 -36 48 -70 -2 -35 10 -44 21 -17 3 9 0 20 -8 26 -10 7 -6
8 13 4 15 -3 30 -2 33 4 3 5 0 7 -8 4 -14 -5 -67 41 -67 58 0 5 -4 6 -10 3
-13 -8 -13 1 1 27 8 15 8 19 0 14 -6 -4 -11 0 -11 9 0 11 5 15 14 12 8 -3 20
1 27 9 17 21 20 13 9 -24 -8 -29 -6 -34 16 -49 20 -13 30 -14 51 -4 23 10 25
10 19 -6 -6 -17 -5 -17 7 -1 8 10 18 14 22 10 5 -4 5 -2 2 4 -4 7 0 14 8 18 8
3 15 11 15 18 0 9 -3 8 -10 -2 -5 -8 -10 -11 -10 -6 0 6 -6 1 -14 -9 -12 -17
-14 -16 -18 18 -4 38 5 50 16 21 3 -9 12 -14 20 -11 8 3 24 -5 37 -19 12 -13
17 -24 11 -24 -7 0 -12 4 -12 10 0 5 -7 7 -15 4 -23 -9 -18 -34 5 -29 11 2 25
7 30 10 6 3 10 1 10 -4 0 -19 2 -26 8 -36 4 -6 -1 -2 -10 8 -10 11 -18 14 -18
8 0 -7 -5 -9 -11 -6 -28 18 -66 -64 -41 -89 12 -13 8 -30 -13 -48 -12 -9 -24
-13 -30 -8 -13 11 -124 9 -131 -2 -3 -4 3 -19 12 -33 10 -15 12 -25 5 -25 -6
0 -11 8 -11 18 0 12 -3 13 -8 4 -6 -9 -15 -5 -33 15 -17 20 -18 23 -3 10 28
-23 41 -22 19 3 -10 11 -15 23 -12 27 4 3 7 1 7 -5 0 -7 4 -12 10 -12 5 0 7 7
4 15 -5 11 -1 14 12 9 14 -4 16 -3 5 4 -7 5 -21 7 -31 5 -10 -3 -21 0 -24 6
-5 7 2 11 16 11 13 0 29 5 36 12 20 20 14 65 -10 82 -20 14 -24 14 -45 1 -13
-9 -23 -11 -23 -5 0 5 5 10 11 10 5 0 7 5 3 12 -4 7 -3 8 4 4 7 -4 12 -1 12 8
0 8 5 18 12 22 7 4 8 3 4 -4 -4 -7 -3 -12 3 -12 17 0 24 22 10 31 -8 5 -16 9
-19 9 -11 0 -48 -67 -55 -98 -5 -27 -3 -36 17 -52 12 -11 19 -19 14 -20 -5 0
-3 -6 3 -14 9 -11 9 -16 0 -22 -8 -4 -9 -3 -5 4 4 7 3 12 -2 12 -5 0 -12 10
-15 22 -4 12 -9 20 -11 17 -15 -15 19 -81 60 -118 147 -129 355 13 293 200
-15 43 -55 88 -96 105 -48 21 -122 18 -162 -7z m127 -36 c-4 -22 -32 -38 -52
-30 -21 8 -21 43 1 56 22 12 55 -5 51 -26z m-132 -105 c7 -22 -19 -52 -40 -45
-17 6 -29 34 -23 51 10 24 54 21 63 -6z m248 -4 c8 -21 -11 -44 -36 -44 -21 0
-33 22 -24 45 7 20 52 19 60 -1z m8 -57 c-7 -8 -10 -16 -7 -19 3 -3 -8 -4 -25
-3 -41 2 -51 15 -11 15 19 0 34 6 38 15 3 9 8 14 11 11 3 -3 0 -12 -6 -19z
m-15 -42 c5 -4 2 -5 -4 -1 -9 5 -13 0 -13 -13 0 -19 -10 -26 -32 -22 -5 0 -8
-3 -8 -7 0 -5 -13 -18 -30 -30 l-30 -22 12 25 c7 15 17 24 25 21 8 -3 11 -1 8
4 -3 6 -1 10 5 10 6 0 8 5 4 12 -6 9 -9 9 -12 0 -4 -14 -22 -16 -22 -3 0 13
50 37 72 36 10 -1 21 -5 25 -10z m-197 -24 c-5 -10 -3 -26 6 -43 13 -24 12
-27 -1 -22 -8 4 -15 11 -15 18 0 6 -7 23 -14 38 -14 27 -14 28 9 26 18 -2 22
-6 15 -17z m75 -21 c0 -18 -6 -26 -23 -28 -13 -2 -25 3 -28 12 -10 26 4 48 28
44 17 -2 23 -10 23 -28z"/>
<path d="M3620 4780 c0 -5 5 -10 10 -10 6 0 10 5 10 10 0 6 -4 10 -10 10 -5 0
-10 -4 -10 -10z"/>
<path d="M3470 4956 c0 -2 7 -9 15 -16 9 -7 15 -8 15 -2 0 5 -7 12 -15 16 -8
3 -15 4 -15 2z"/>
<path d="M3590 4940 c0 -5 5 -10 11 -10 5 0 7 5 4 10 -3 6 -8 10 -11 10 -2 0
-4 -4 -4 -10z"/>
<path d="M3030 4877 c0 -34 7 -89 15 -120 16 -62 60 -157 73 -157 5 0 20 13
35 28 l27 28 -26 55 c-19 37 -28 76 -32 125 -4 70 -5 72 -39 88 -18 9 -38 16
-43 16 -6 0 -10 -28 -10 -63z"/>
<path d="M3880 4879 c-78 -37 -125 -65 -124 -73 2 -14 164 -214 175 -215 10
-2 57 92 73 148 16 55 22 202 9 200 -5 0 -64 -28 -133 -60z"/>
<path d="M3553 4923 c-21 -8 -15 -22 7 -16 11 3 20 9 20 14 0 10 -8 10 -27 2z"/>
<path d="M3562 4880 c0 -14 2 -19 5 -12 2 6 2 18 0 25 -3 6 -5 1 -5 -13z"/>
<path d="M3538 4855 c2 -19 6 -35 8 -35 2 0 4 16 4 35 0 19 -4 35 -8 35 -4 0
-6 -16 -4 -35z"/>
<path d="M3512 4850 c-16 -26 -15 -30 3 -30 9 0 15 9 15 25 0 30 -2 31 -18 5z"/>
<path d="M3450 4820 c0 -5 4 -10 9 -10 6 0 13 5 16 10 3 6 -1 10 -9 10 -9 0
-16 -4 -16 -10z"/>
<path d="M3635 4491 c-43 -18 -123 -22 -189 -10 l-68 11 -32 -31 c-38 -39 -33
-43 73 -67 51 -11 96 -15 145 -11 69 6 166 32 166 45 -1 11 -59 72 -67 71 -5
0 -17 -4 -28 -8z"/>
<path d="M8819 5341 c-57 -22 -122 -67 -172 -118 l-38 -40 40 -18 40 -18 43
37 c23 20 65 47 93 61 50 23 52 25 50 64 -1 22 -3 42 -6 45 -2 2 -25 -4 -50
-13z"/>
<path d="M9130 5313 c0 -48 1 -49 46 -71 l46 -23 -4 -59 c-1 -33 -2 -60 -1
-60 13 0 173 82 173 89 0 30 -160 141 -237 165 -22 7 -23 5 -23 -41z"/>
<path d="M8911 5042 c-19 -9 -48 -34 -64 -54 -62 -78 -41 -209 42 -263 43 -29
115 -43 134 -26 8 6 16 8 20 5 12 -12 74 29 102 69 25 35 30 51 30 103 0 50
-5 68 -28 101 -53 77 -157 106 -236 65z m51 -4 c-21 -21 -14 -63 13 -78 51
-27 102 37 63 79 -10 11 -8 10 12 0 41 -23 60 -41 53 -52 -4 -6 0 -8 9 -5 10
4 20 -5 32 -28 16 -34 15 -34 -3 -24 -11 5 -24 10 -28 10 -18 0 -54 -42 -49
-57 3 -8 3 -26 0 -39 -5 -20 -9 -22 -20 -13 -10 8 -14 8 -14 0 0 -6 5 -11 10
-11 6 0 10 -7 10 -16 0 -10 6 -14 14 -11 7 3 19 0 25 -6 8 -8 11 -8 11 1 0 7
-5 12 -12 12 -6 0 -9 3 -5 6 3 4 13 4 21 1 23 -9 -3 -64 -38 -82 -26 -14 -27
-13 -21 6 11 33 -14 69 -46 69 -52 0 -75 -45 -41 -83 17 -20 17 -20 -18 -1
-19 10 -36 22 -38 27 -2 4 -9 7 -15 7 -16 1 -48 46 -50 70 -1 11 -5 20 -9 20
-4 0 -8 5 -8 12 0 9 3 9 12 0 7 -7 24 -12 38 -12 33 0 50 17 50 50 0 14 -5 31
-12 38 -16 16 -61 15 -77 0 -7 -7 -3 4 9 25 20 34 38 50 95 84 26 16 42 16 27
1z m58 -13 c19 -23 8 -50 -20 -50 -19 0 -26 6 -28 24 -5 35 26 53 48 26z
m-122 -131 c4 -29 -23 -51 -43 -34 -16 13 -20 42 -8 54 14 14 48 1 51 -20z
m252 -4 c0 -36 -33 -53 -58 -28 -16 16 -15 23 4 42 12 12 20 13 35 6 10 -6 19
-15 19 -20z m10 -50 c-6 -11 -15 -20 -20 -20 -6 0 -10 -5 -10 -11 0 -5 5 -7
11 -3 8 4 8 0 0 -15 -13 -24 -26 -29 -18 -7 9 23 -21 42 -44 28 -11 -7 -19 -8
-19 -2 0 5 4 10 10 10 5 0 7 8 3 18 -5 14 -3 15 8 5 18 -18 54 -16 69 2 18 21
23 19 10 -5z m-135 -70 c11 -17 -5 -50 -24 -50 -24 0 -43 23 -35 44 7 18 49
22 59 6z"/>
<path d="M9070 5005 c7 -8 17 -15 22 -15 6 0 5 7 -2 15 -7 8 -17 15 -22 15 -6
0 -5 -7 2 -15z"/>
<path d="M8890 5000 c-13 -8 -12 -10 3 -10 9 0 17 5 17 10 0 12 -1 12 -20 0z"/>
<path d="M9065 4980 c3 -6 2 -10 -3 -10 -6 0 -13 -7 -16 -16 -4 -9 -2 -13 5
-8 6 4 15 1 19 -6 5 -9 9 -9 14 -1 4 6 2 11 -3 11 -6 0 -11 5 -11 11 0 5 5 7
10 4 6 -3 10 -2 10 3 0 6 -7 13 -16 16 -8 3 -12 2 -9 -4z"/>
<path d="M8861 4967 c-8 -10 -7 -14 4 -14 8 0 11 5 8 10 -4 6 0 8 10 4 10 -3
17 -2 17 3 0 15 -26 12 -39 -3z"/>
<path d="M8913 4950 c-2 -22 45 -49 56 -32 8 12 54 10 64 -2 5 -7 7 -5 4 4 -3
11 -16 15 -46 14 -33 -1 -41 2 -39 15 2 10 -5 17 -17 19 -15 2 -21 -3 -22 -18z
m31 -5 c-4 -8 -11 -12 -16 -9 -6 4 -5 10 3 15 19 12 19 11 13 -6z"/>
<path d="M9100 4962 c0 -5 7 -9 15 -9 8 0 15 4 15 9 0 4 -7 8 -15 8 -8 0 -15
-4 -15 -8z"/>
<path d="M9051 4914 c0 -11 3 -14 6 -6 3 7 2 16 -1 19 -3 4 -6 -2 -5 -13z"/>
<path d="M8938 4903 c6 -3 10 -9 6 -14 -3 -5 7 -4 21 1 36 14 51 13 69 -6 9
-8 16 -11 16 -5 0 17 -23 26 -75 27 -27 0 -44 -1 -37 -3z"/>
<path d="M8996 4875 c4 -8 10 -12 15 -9 11 6 2 24 -11 24 -5 0 -7 -7 -4 -15z"/>
<path d="M8955 4870 c-3 -5 -1 -10 4 -10 6 0 11 5 11 10 0 6 -2 10 -4 10 -3 0
-8 -4 -11 -10z"/>
<path d="M8920 4845 c-7 -8 -18 -15 -26 -15 -7 0 -16 -4 -19 -10 -4 -6 1 -7
11 -3 11 4 15 3 11 -4 -5 -7 0 -9 13 -6 11 3 20 0 20 -6 0 -6 -4 -11 -10 -11
-5 0 -10 -5 -10 -11 0 -8 5 -7 15 1 9 7 14 19 11 26 -5 14 17 37 27 27 4 -3 7
-1 7 5 0 17 -15 15 -30 -3 -7 -8 -17 -15 -23 -15 -5 0 -2 9 8 20 10 11 16 20
13 20 -3 0 -11 -7 -18 -15z"/>
<path d="M8991 4841 c-8 -6 -9 -11 -3 -15 6 -3 14 -1 17 5 9 14 2 20 -14 10z"/>
<path d="M8848 4815 c19 -36 40 -60 46 -54 4 4 -8 21 -25 40 -18 19 -27 25
-21 14z"/>
<path d="M9067 4760 c3 -11 7 -20 9 -20 2 0 4 9 4 20 0 11 -4 20 -9 20 -5 0
-7 -9 -4 -20z"/>
<path d="M8510 4866 c0 -79 25 -177 60 -233 24 -41 33 -41 60 -3 l22 31 -21
44 c-25 53 -40 117 -41 167 0 31 -5 40 -30 53 -47 24 -50 21 -50 -59z"/>
<path d="M9355 4880 c-66 -33 -124 -61 -129 -63 -6 -2 32 -53 84 -114 52 -62
98 -109 102 -107 16 10 58 104 73 161 19 72 20 183 3 182 -7 0 -67 -27 -133
-59z"/>
<path d="M8830 4467 c-16 -18 -30 -35 -30 -39 0 -12 96 -39 165 -45 88 -7 235
22 235 46 0 4 -12 21 -27 38 l-28 32 -65 -15 c-65 -14 -149 -12 -197 7 -19 7
-28 3 -53 -24z"/>
<path d="M2067 5459 c-9 -205 -9 -419 1 -419 13 0 61 50 79 83 15 27 18 65 21
249 4 240 10 218 -64 233 l-31 6 -6 -152z"/>
</g>
</svg>
